{"title":"Hitman Agent 47 2015 HQ CAM XviD-HaL0","uid":12279781,"size":1538200238,"categoryP":"video","categoryS":"movies","magnet":"?xt=urn:btih:52946449787af5550319a9509fbed66914a1fdda&amp;dn=Hitman+Agent+47+2015+HQ+CAM+XviD-HaL0&amp;tr=udp%3A%2F%2Ftracker.openbittorrent.com%3A80&amp;tr=udp%3A%2F%2Fopen.demonii.com%3A1337&amp;tr=udp%3A%2F%2Ftracker.coppersurfer.tk%3A6969&amp;tr=udp%3A%2F%2Fexodus.desync.com%3A6969","seeders":41,"leechers":18,"uploader":"SS132203","files":3,"time":1440398494,"description":"Hitman Agent 47 2015 HQ CAM XviD-HaL0\n &lt;a href=&quot;\nhttp://imgsparrow.co/image/8eI&quot; rel=&quot;nofollow&quot; target=&quot;_NEW&quot;&gt;\nhttp://imgsparrow.co/image/8eI&lt;/a&gt;\n &lt;a href=&quot;\nhttp://imgsparrow.co/image/9b&quot; rel=&quot;nofollow&quot; target=&quot;_NEW&quot;&gt;\nhttp://imgsparrow.co/image/9b&lt;/a&gt;\n\nInfo : - \n\nThank HaL0 Not ME!\n\nSample Within Torrent\n &lt;a href=&quot;\nhttp://www.imdb.com/title/tt2679042/&quot; rel=&quot;nofollow&quot; target=&quot;_NEW&quot;&gt;\nhttp://www.imdb.com/title/tt2679042/&lt;/a&gt;\n\nGeneral\nComplete name: Hitman.Agent.47.2015.HQ.Cam.Xvid.HaL0.avi\nFormat: AVI\nFormat/Info: Audio Video Interleave\nFormat profile: OpenDML\nFile size: 1.41 GiB\nDuration: 1h 28mn\nOverall bit rate mode: Variable\nOverall bit rate: 2 268 Kbps\nWriting application: Lavf54.63.104\n\nVideo\nID: 0\nFormat: MPEG-4 Visual\nFormat profile: Simple@L3\nFormat settings, BVOP: No\nFormat settings, QPel: No\nFormat settings, GMC: No warppoints\nFormat settings, Matrix: Default (H.263)\nCodec ID: XVID\nCodec ID/Hint: XviD\nDuration: 1h 28mn\nBit rate: 2 108 Kbps\nWidth: 640 pixels\nHeight: 480 pixels\nDisplay aspect ratio: 4:3\nFrame rate: 29.639 fps\nColor space: YUV\nChroma subsampling: 4:2:0\nBit depth: 8 bits\nScan type: Progressive\nCompression mode: Lossy\nBits/(Pixel*Frame): 0.231\nStream size: 1.31 GiB (93%)\nWriting library: XviD 64\n\nAudio\nID: 1\nFormat: MPEG Audio\nFormat version: Version 1\nFormat profile: Layer 3\nMode: Joint stereo\nMode extension: MS Stereo\nCodec ID: 55\nCodec ID/Hint: MP3\nDuration: 1h 28mn\nBit rate mode: Variable\nBit rate: 128 Kbps\nChannel(s): 2 channels\nSampling rate: 44.1 KHz\nCompression mode: Lossy\nStream size: 92.1 MiB (6%)\nAlignment: Aligned on interleaves\nInterleave, duration: 26 ms (0.77 video frame)\nInterleave, preload duration: 6 ms\n\nScreens : - \n &lt;a href=&quot;\nhttp://imgsparrow.co/image/8eP&quot; rel=&quot;nofollow&quot; target=&quot;_NEW&quot;&gt;\nhttp://imgsparrow.co/image/8eP&lt;/a&gt; &lt;a href=&quot;\nhttp://imgsparrow.co/image/8eW&quot; rel=&quot;nofollow&quot; target=&quot;_NEW&quot;&gt;\nhttp://imgsparrow.co/image/8eW&lt;/a&gt; &lt;a href=&quot;\nhttp://imgsparrow.co/image/8eX&quot; rel=&quot;nofollow&quot; target=&quot;_NEW&quot;&gt;\nhttp://imgsparrow.co/image/8eX&lt;/a&gt; &lt;a href=&quot;\nhttp://imgsparrow.co/image/8eY&quot; rel=&quot;nofollow&quot; target=&quot;_NEW&quot;&gt;\nhttp://imgsparrow.co/image/8eY&lt;/a&gt; &lt;a href=&quot;\nhttp://imgsparrow.co/image/8ec&quot; rel=&quot;nofollow&quot; target=&quot;_NEW&quot;&gt;\nhttp://imgsparrow.co/image/8ec&lt;/a&gt; &lt;a href=&quot;\nhttp://imgsparrow.co/image/8ed&quot; rel=&quot;nofollow&quot; target=&quot;_NEW&quot;&gt;\nhttp://imgsparrow.co/image/8ed&lt;/a&gt; &lt;a href=&quot;\nhttp://imgsparrow.co/image/8eo&quot; rel=&quot;nofollow&quot; target=&quot;_NEW&quot;&gt;\nhttp://imgsparrow.co/image/8eo&lt;/a&gt; &lt;a href=&quot;\nhttp://imgsparrow.co/image/8eM&quot; rel=&quot;nofollow&quot; target=&quot;_NEW&quot;&gt;\nhttp://imgsparrow.co/image/8eM&lt;/a&gt; &lt;a href=&quot;\nhttp://imgsparrow.co/image/8em&quot; rel=&quot;nofollow&quot; target=&quot;_NEW&quot;&gt;\nhttp://imgsparrow.co/image/8em&lt;/a&gt;\n &lt;a href=&quot;\nhttp://imgsparrow.co/image/N2&quot; rel=&quot;nofollow&quot; target=&quot;_NEW&quot;&gt;\nhttp://imgsparrow.co/image/N2&lt;/a&gt;","torrent":{"xt":"urn:btih:52946449787af5550319a9509fbed66914a1fdda","amp;dn":"Hitman+Agent+47+2015+HQ+CAM+XviD-HaL0","amp;tr":["udp%3A%2F%2Ftracker.openbittorrent.com%3A80","udp%3A%2F%2Fopen.demonii.com%3A1337","udp%3A%2F%2Ftracker.coppersurfer.tk%3A6969","udp%3A%2F%2Fexodus.desync.com%3A6969"],"infoHash":"52946449787af5550319a9509fbed66914a1fdda","infoHashBuffer":{"type":"Buffer","data":[82,148,100,73,120,122,245,85,3,25,169,80,159,190,214,105,20,161,253,218]},"announce":[],"urlList":[]}}